<?xml version="1.0" encoding="UTF-8"?>
<svg width="10px" height="19px" viewBox="0 0 10 19" version="1.1" xmlns="http://www.w3.org/2000/svg" xmlns:xlink="http://www.w3.org/1999/xlink">
    <!-- Generator: Sketch 55 (78076) - https://sketchapp.com -->
    <title>Fill 1</title>
    <desc>Created with Sketch.</desc>
    <g id="Tablet---Header-/-Nav-/-Footer" stroke="none" stroke-width="1" fill="none" fill-rule="evenodd">
        <g id="Tablet---Full-Header" transform="translate(-743.000000, -138.000000)" fill="#595959">
            <g id="Group" transform="translate(0.000000, 117.000000)">
                <path d="M748.666567,34.8130272 L756.746693,26.8478418 C757.155871,26.4930591 757.207584,25.8648051 756.862401,25.4443097 C756.516571,25.0241462 755.905068,24.9710449 755.495567,25.3258276 C755.466801,25.3510507 755.439329,25.3776013 755.413473,25.4061432 L748.000119,32.7178516 L740.586441,25.4061432 C740.22025,25.0045651 739.606484,24.9839884 739.216052,25.3600115 C738.824974,25.7360346 738.804935,26.3662799 739.171127,26.7675262 C739.196983,26.7957362 739.224455,26.8226187 739.253221,26.8478418 L747.333347,34.8130272 C747.545692,35.0224452 747.839163,35.1216782 748.13134,35.082516 C748.33302,35.0526466 748.520156,34.9583919 748.666567,34.8130272 Z" id="Fill-1" transform="translate(748.000000, 30.090909) rotate(-90.000000) translate(-748.000000, -30.090909) "></path>
            </g>
        </g>
    </g>
</svg>