<?xml version="1.0" encoding="UTF-8"?>
<svg width="10px" height="19px" viewBox="0 0 10 19" version="1.1" xmlns="http://www.w3.org/2000/svg" xmlns:xlink="http://www.w3.org/1999/xlink">
    <!-- Generator: Sketch 55 (78076) - https://sketchapp.com -->
    <title>Fill 1</title>
    <desc>Created with Sketch.</desc>
    <g id="Tablet---Header-/-Nav-/-Footer" stroke="none" stroke-width="1" fill="none" fill-rule="evenodd">
        <g id="Tablet---Full-Header" transform="translate(-15.000000, -138.000000)" fill="#595959">
            <g id="Group" transform="translate(0.000000, 117.000000)">
                <path d="M20.6665674,34.8130272 L28.7466934,26.8478418 C29.155871,26.4930591 29.2075838,25.8648051 28.8624008,25.4443097 C28.5165715,25.0241462 27.9050675,24.9710449 27.4955667,25.3258276 C27.4668015,25.3510507 27.4393291,25.3776013 27.4134727,25.4061432 L20.0001186,32.7178516 L12.5864414,25.4061432 C12.2202501,25.0045651 11.6064837,24.9839884 11.216052,25.3600115 C10.8249739,25.7360346 10.8049352,26.3662799 11.1711265,26.7675262 C11.1969829,26.7957362 11.2244553,26.8226187 11.2532206,26.8478418 L19.3333466,34.8130272 C19.5456923,35.0224452 19.8391625,35.1216782 20.1313399,35.082516 C20.3330198,35.0526466 20.5201555,34.9583919 20.6665674,34.8130272 Z" id="Fill-1" transform="translate(20.000000, 30.090909) rotate(-270.000000) translate(-20.000000, -30.090909) "></path>
            </g>
        </g>
    </g>
</svg>