<svg xmlns="http://www.w3.org/2000/svg" width="44" height="44" viewBox="0 0 44 44">
    <path fill="#1A1A1A" fill-rule="nonzero" d="M27.28 19.045a1.76 1.76 0 1 1-.001 3.521 1.76 1.76 0 0 1 .001-3.521zm-5.28 0a1.76 1.76 0 1 1-.001 3.521A1.76 1.76 0 0 1 22 19.045zm-5.28 0a1.76 1.76 0 1 1-.001 3.521 1.76 1.76 0 0 1 .001-3.521zm17.16 6.6v-9.68a3.08 3.08 0 0 0-3.08-3.08H13.2a3.08 3.08 0 0 0-3.08 3.08v9.68a3.08 3.08 0 0 0 3.08 3.08h.88v3.49c0 .66.799.992 1.265.525l4.676-4.015H30.8a3.08 3.08 0 0 0 3.08-3.08zM22 0c12.15 0 22 9.85 22 22s-9.85 22-22 22S0 34.15 0 22 9.85 0 22 0z"/>
</svg>
