<svg xmlns="http://www.w3.org/2000/svg" width="44" height="44" viewBox="0 0 44 44">
    <path fill="#1A1A1A" fill-rule="nonzero" d="M26.405 21.64l4.577 4.578a.879.879 0 1 1-1.244 1.244l-4.684-4.683-2.486 2.094a.879.879 0 0 1-1.135 0l-2.488-2.094-4.683 4.683a.874.874 0 0 1-.622.258.879.879 0 0 1-.622-1.502l4.577-4.577-4.522-3.808a.88.88 0 1 1 1.135-1.345L22 23.05l7.793-6.562a.88.88 0 1 1 1.135 1.345l-4.523 3.808zm7.475 6.518V15.842a2.202 2.202 0 0 0-2.202-2.202H12.322a2.202 2.202 0 0 0-2.202 2.202v12.316c0 1.216.986 2.202 2.202 2.202h19.356a2.202 2.202 0 0 0 2.202-2.202zM0 22C0 9.85 9.85 0 22 0s22 9.85 22 22-9.85 22-22 22S0 34.15 0 22z"/>
</svg>
