<svg xmlns="http://www.w3.org/2000/svg" width="50" height="50" viewBox="0 0 50 50">
    <path fill="#3B5998" fill-rule="evenodd" d="M38.194 36.738c0 .805-.652 1.457-1.457 1.457h-6.712V27.989h3.44l.516-3.994h-3.956V21.45c0-1.154.32-1.94 1.969-1.94h2.103v-3.563a29.174 29.174 0 0 0-3.073-.154c-3.04 0-5.122 1.856-5.122 5.264v2.938h-3.428v3.994h3.428v10.206h-12.64a1.457 1.457 0 0 1-1.456-1.457V13.262c0-.804.652-1.456 1.457-1.456h23.474c.805 0 1.457.652 1.457 1.456v23.476zM25 0C11.193 0 0 11.193 0 25s11.193 25 25 25 25-11.193 25-25S38.807 0 25 0z"/>
</svg>
