<svg xmlns="http://www.w3.org/2000/svg" width="172" height="62" viewBox="0 0 172 62">
    <g fill="none" fill-rule="evenodd">
        <g fill="#F7971F">
            <path d="M19.848 31.47h-7.776c-.488 0-.716-.175-.716.32v4.159c0 .407-.195.64.358.64h2.05c.423 0 .683-.175.683.29.032.378 0 .757 0 1.164-.033 2.617 0 5.235 0 7.852 0 .495-.195.32-.65.32H10.77c-1.204-.174-2.082-.989-2.538-1.949-1.041-2.268-1.399-4.827-1.562-7.27-.162-2.501-.358-5.06-.26-7.562.098-2.588-.098-5.351.553-7.881.358-1.833.846-5.177 3.612-4.857 2.473.262 2.863 3.81 3.123 5.496.098.611.163 1.222.196 1.833.032.349-.065.29.195.29h5.89c-.684-4.507-1.335-10.266-6.378-12.621-2.18-1.047-5.109-.844-7.224.174-1.04.669-2.05 1.396-2.733 2.356a14.28 14.28 0 0 0-1.822 3.257C.358 21.001 0 24.984 0 28.707c0 4.072.13 8.201.976 12.215.879 4.042 2.506 9.8 7.972 10.44l10.868.117c.52 0 .39-.145.39-.553V32.11c0-.436.195-.64-.358-.64M99.89 42.26c-.172 1.019-.316 2.184-1.036 2.999s-2.045.728-2.621-.204c-.605-.96-.778-2.067-.922-3.173-.173-1.34-.317-2.679-.374-4.018-.116-2.562-.144-5.124-.144-7.715 0-2.562 0-5.124.201-7.657.115-1.572.26-5.648 2.42-5.852 2.42-.233 2.592 3.785 2.822 5.416.087 2.59.23 5.182.23 7.802 0 1.543.202 3.231-.057 4.745.058 2.562-.057 5.124-.518 7.657m5.587-21.806c-.23-1.252-.518-2.416-.95-3.61-.374-1.106-.98-2.475-1.728-3.348-1.498-1.747-3.543-2.65-5.819-2.475-2.304.175-4.09 1.718-5.242 3.669-2.477 4.221-2.62 9.723-2.678 14.469-.029 2.533.029 5.153.288 7.657.26 2.475.547 4.978 1.21 7.395.403 1.455.892 2.882 1.67 4.163.72 1.164 1.872 2.445 3.226 2.795 1.584.437 3.024.407 4.609-.058 1.353-.408 2.39-1.776 3.11-2.94 1.757-2.854 2.19-6.26 2.564-9.52.172-1.719.316-3.436.374-5.154.058-1.688.26-3.465.058-5.153-.03-2.65-.23-5.299-.692-7.89M137.248 29.392c-.029-1.251-.029-2.531.058-3.783.116-1.25.029-2.56.202-3.811.173-1.572.52-5.616 2.917-5.121 1.011.203 1.474 1.222 1.705 2.153.26 1.018.491 2.037.606 3.084.145 1.164.087 2.386.174 3.579.115 1.31.057 2.59.086 3.899h-5.748zm7.337-16.585c-1.878-1.659-4.362-2.3-6.76-1.397-4.592 1.717-5.517 7.74-5.95 12.017-.52 5.15-.347 10.417.116 15.538.26 2.619.837 5.238 1.79 7.682.867 2.27 3.005 4.917 5.691 4.83 1.3-.058 2.369-.058 3.582-.64.982-.465 1.878-1.542 2.456-2.473 1.357-2.212 1.733-4.714 2.397-7.158-1.011-.204-2.195-.03-3.235-.03h-1.82c-.462 0-.347.175-.375.582-.03.291-.058.582-.116.873-.145.903-.462 1.95-1.011 2.677-.549.728-2.022.728-2.542-.029-.578-.844-.838-2.036-.953-3.055-.145-1.106-.347-2.27-.347-3.375 0-1.164-.116-2.328-.086-3.463 0-.32-.29-1.076.173-1.076h11.034c.26-5.122.203-10.155-.808-15.19-.492-2.21-1.56-4.8-3.236-6.313zM157.578 26.56c.03-1.046 0-2.063.087-3.108.174-1.801.29-3.66.957-5.344.492-1.22 1.941-2.12 3.042-.93.464.523.811 1.569.928 2.237.173.987.347 1.975.434 2.962.174 1.917.174 3.863.232 5.809 0 .26.232 1.161-.116 1.161h-5.651c-.116-.9.058-1.888.087-2.788m7.187 14.55c-.637 0-1.304 0-1.941.03-.059.58-.117 1.161-.262 1.742-.173.842-.463 2.12-1.246 2.614-.927.58-1.999.145-2.492-.726-1.072-1.975-.956-4.53-1.159-6.709-.087-1.162-.174-2.352-.145-3.543.029-.378.058-.29.406-.29h10.983c.145-2.643.087-5.286.029-7.9-.058-2.614-.55-5.17-1.014-7.755-.174-1.074-.725-2.178-1.188-3.136a13.694 13.694 0 0 0-.87-1.568c-.29-.494-.753-.814-1.159-1.22-1.826-1.452-4.202-2.12-6.462-1.278-4.579 1.713-5.506 7.435-6.115 11.675-.435 5.053-.493 10.194.116 15.218.319 2.672.696 5.373 1.68 7.9.465 1.19 1.073 2.41 1.942 3.34.928.987 2 1.54 3.304 1.83 2.492.58 5.274-.61 6.578-2.789 1.391-2.323 1.826-4.82 2.521-7.376-1.13-.175-2.376-.058-3.506-.058M33.3 29.29L28.208 11h-5.944l7.83 25.558v14.921h6.478v-15.6L44.527 11h-6.195zM62.088 11l-5.601 18.335L50.999 11h-3.65l-1.81 40.479h5.63l.339-23.886 4.215 13.405c.17.59.085.826.679.826.82 0 .82.148 1.047-.59l4.328-14.29.396 24.506h5.63L66.076 11h-3.989zM80.405 45.283c-.89 1.18-2.024 1.121-3.465 1.15h-.89V32.39c1.35.03 2.79-.265 3.895.679 1.042.944.889 2.449.889 3.717v4.455c0 1.298.214 2.862-.43 4.042zM76.05 16.458c0-.501.184-.324.613-.324 1.196-.03 2.575-.089 3.434.855.828.915.736 2.272.736 3.393v4.22c-.061.884-.245 2.005-1.165 2.448-.706.738-2.699.384-3.618.384V16.458zm10.915 18.824c-.214-2.479-1.533-4.869-4.292-5.34.153-.325 1.011-.414 1.349-.532.429-.206.858-.472 1.195-.796.92-.826 1.196-1.83 1.442-2.98.184-2.567.122-5.193 0-7.79-.522-2.212-1.135-4.336-3.281-5.605C81.938 11.413 80.22 11 78.534 11h-8.708v40.479h5.826c2.668-.088 5.611.325 8.033-1.062 2.423-1.387 3.19-3.895 3.312-6.461.061-1.387 0-2.773 0-4.16 0-1.505.092-3.039-.03-4.514zM121.002 26.183c-.435.914-1.973 1.15-2.977 1.239-.669.059-1.338.059-2.007.03V25.18c0-2.683-.034-5.395 0-8.078 0-.324 0-.649.033-.973h1.104c.67 0 1.439-.03 2.108.118 1.304.324 2.04 1.15 2.007 2.358v3.892c-.067 1.12.234 2.624-.268 3.685m7.561 12.265c-.1-1.798.2-3.95-.77-5.631-1.037-1.828-3.546-2.536-5.72-2.683.234-.236 1.438-.295 1.84-.413a6.55 6.55 0 0 0 1.605-.766c1.071-.708 1.64-1.74 1.94-2.86.703-2.388.402-4.983.369-7.46-.034-2.299-1.138-4.48-3.044-6.013C123.143 11.295 120.6 11 118.46 11h-9.1v.03l-.067 40.449h6.691c-.033-5.012 0-10.053 0-15.065 0-1.268 0-2.536.034-3.804 1.237-.029 2.71-.176 3.914.148 2.743.737 1.973 4.098 1.973 6.103 0 2.476-.033 4.953.1 7.459.068 1.208.202 2.417.436 3.596.067.472-.1 1.563.568 1.563h6.524c-.2-2.211-.602-4.363-.736-6.574-.134-2.153-.1-4.305-.234-6.457"/>
        </g>
        <g transform="translate(168 48)">
            <circle cx="2" cy="2" r="1.875" stroke="#F06D22" stroke-width=".25"/>
            <path fill="#F7971F" d="M1.79 1.91h-.255v-.554c.07 0 .163-.02.302-.02.326 0 .489.12.489.298 0 .198-.233.277-.535.277m.651.139v-.02c.256-.06.465-.218.465-.456a.454.454 0 0 0-.232-.416C2.512 1.06 2.325 1 1.884 1c-.372 0-.675.04-.884.06V3h.535v-.772h.256c.279 0 .418.099.465.297.07.237.116.396.186.475H3c-.046-.079-.093-.178-.163-.475-.07-.258-.162-.416-.395-.475"/>
        </g>
    </g>
</svg>
