<svg xmlns="http://www.w3.org/2000/svg" xmlns:xlink="http://www.w3.org/1999/xlink" width="50" height="50" viewBox="0 0 50 50">
    <defs>
        <path id="a" d="M0 0h50v50H0z"/>
    </defs>
    <g fill="none" fill-rule="evenodd">
        <path fill="#E1306C" d="M33.007 18.793a1.8 1.8 0 1 1 0-3.6 1.8 1.8 0 0 1 0 3.6M25 32.703a7.702 7.702 0 1 1 0-15.405 7.702 7.702 0 0 1 0 15.405m11.694-16.55a4.646 4.646 0 0 0-1.123-1.724 4.636 4.636 0 0 0-1.724-1.122c-.528-.205-1.322-.451-2.785-.517-1.582-.072-2.057-.087-6.062-.087-4.005 0-4.48.015-6.061.087-1.462.066-2.256.312-2.786.517-.7.272-1.2.597-1.724 1.122a4.644 4.644 0 0 0-1.122 1.724c-.205.529-.45 1.324-.517 2.786-.072 1.582-.087 2.056-.087 6.06 0 4.006.015 4.48.087 6.063.067 1.46.312 2.256.517 2.785.272.7.597 1.2 1.122 1.724.525.526 1.024.85 1.724 1.122.53.205 1.324.45 2.786.517 1.582.072 2.056.088 6.06.088 4.007 0 4.48-.016 6.063-.088 1.463-.066 2.257-.312 2.785-.517.7-.272 1.2-.596 1.724-1.122a4.638 4.638 0 0 0 1.123-1.724c.206-.53.45-1.324.516-2.785.072-1.582.088-2.057.088-6.062 0-4.005-.016-4.48-.088-6.061-.066-1.462-.31-2.257-.516-2.786"/>
        <path fill="#E1306C" d="M25 20a5 5 0 1 0 0 10 5 5 0 0 0 0-10"/>
        <mask id="b" fill="#fff">
            <use xlink:href="#a"/>
        </mask>
        <path fill="#E1306C" d="M39.91 31.184c-.073 1.598-.327 2.687-.697 3.641a7.359 7.359 0 0 1-1.731 2.657 7.351 7.351 0 0 1-2.657 1.73c-.953.37-2.044.624-3.641.698-1.599.073-2.11.09-6.184.09-4.073 0-4.585-.017-6.185-.09-1.596-.073-2.686-.327-3.64-.697a7.346 7.346 0 0 1-2.658-1.73 7.348 7.348 0 0 1-1.729-2.657c-.371-.955-.625-2.044-.697-3.642-.074-1.6-.091-2.11-.091-6.184 0-4.073.017-4.585.091-6.184.072-1.598.326-2.688.697-3.641a7.348 7.348 0 0 1 1.729-2.658 7.33 7.33 0 0 1 2.658-1.728c.954-.373 2.044-.625 3.64-.698C20.415 10.018 20.927 10 25 10c4.074 0 4.585.018 6.184.09 1.597.074 2.688.326 3.641.699a7.335 7.335 0 0 1 2.657 1.729 7.367 7.367 0 0 1 1.731 2.656c.37.954.624 2.044.697 3.642.073 1.599.09 2.11.09 6.184 0 4.075-.017 4.584-.09 6.184M25 0C11.193 0 0 11.194 0 25c0 13.807 11.193 25 25 25s25-11.193 25-25C50 11.194 38.807 0 25 0" mask="url(#b)"/>
    </g>
</svg>
