<svg xmlns="http://www.w3.org/2000/svg" width="50" height="50" viewBox="0 0 50 50">
    <g fill="none" fill-rule="evenodd">
        <path fill="#FFF" d="M25 0c13.807 0 25 11.183 25 24.98 0 13.795-11.193 24.979-25 24.979S0 38.775 0 24.979C0 11.183 11.193 0 25 0"/>
        <path fill="#E60019" d="M25 0C11.193 0 0 11.184 0 24.98c0 10.587 6.584 19.634 15.885 23.272-.227-1.973-.412-5.016.082-7.175.453-1.953 2.922-12.417 2.922-12.417s-.74-1.502-.74-3.701c0-3.475 2.016-6.065 4.525-6.065 2.14 0 3.17 1.604 3.17 3.516 0 2.138-1.359 5.345-2.078 8.326-.597 2.488 1.254 4.523 3.703 4.523 4.444 0 7.86-4.687 7.86-11.43 0-5.984-4.3-10.157-10.453-10.157-7.12 0-11.295 5.325-11.295 10.835 0 2.138.822 4.44 1.852 5.694a.743.743 0 0 1 .164.72c-.186.781-.618 2.487-.7 2.837-.103.452-.37.555-.844.329-3.127-1.46-5.081-6.003-5.081-9.683 0-7.874 5.719-15.112 16.522-15.112 8.663 0 15.41 6.168 15.41 14.434 0 8.614-5.431 15.542-12.962 15.542-2.53 0-4.918-1.316-5.72-2.878l-1.564 5.941c-.555 2.18-2.077 4.893-3.107 6.559 2.346.72 4.815 1.11 7.407 1.11 13.807 0 25-11.184 25-24.98C50 11.185 38.807 0 25 0"/>
    </g>
</svg>
