<svg xmlns="http://www.w3.org/2000/svg" xmlns:xlink="http://www.w3.org/1999/xlink" width="90" height="33" viewBox="0 0 90 33">
    <defs>
        <path id="a" d="M.54.165h15.504v20.52H.54z"/>
        <path id="c" d="M0 .415h5.361V6.45H0z"/>
        <path id="e" d="M.45.304h5.53V6.56H.45z"/>
    </defs>
    <g fill="none" fill-rule="evenodd">
        <path fill="#00A4E4" d="M4.984 20.409a6.48 6.48 0 0 0 2.952.691c2.838 0 3.755-2.132 3.755-3.861 0-3.371-1.835-5.131-4.902-5.131-.687 0-1.318.059-1.805.116v8.185zm-4.93 10.49H.57c1.319 0 1.892-.49 1.892-2.364V14.47c0-1.873-.573-2.363-1.892-2.363H.054v-.865c1.004.03 2.38.088 3.67.088 1.547 0 3.123-.088 4.67-.088 4.615 0 6.048 3.171 6.048 5.448 0 2.565-1.547 5.505-6.821 5.505-.888 0-1.749-.087-2.637-.174v5.822c0 2.737.487 3.054 1.634 3.054h.83v.865c-1.26-.028-2.464-.086-3.725-.086-1.29 0-2.665.058-3.669.086v-.865zM15.13 30.898h.516c1.318 0 1.89-.489 1.89-2.362V14.472c0-1.874-.572-2.364-1.89-2.364h-.516v-.865c1.003.03 2.379.088 3.668.088 1.262 0 2.465-.058 3.812-.088v.865h-.66c-1.317 0-1.89.49-1.89 2.364v13.401c0 2.162.458 2.91 3.983 2.91 4.7 0 5.246-.835 5.762-4.12h.888l-.172 5.1c-2.522-.028-5.76-.086-8.283-.086-3.353 0-6.105.058-7.108.087v-.866zM41.967 14.357l-2.666 7.896h5.876l-3.21-7.896zm-9.602 16.54h.344c1.577 0 2.207-.718 3.096-3.11l6.563-17.35h.545l7.366 17.666c.688 1.67 1.577 2.795 2.895 2.795h.602v.866a73.966 73.966 0 0 0-3.898-.087c-1.52 0-2.896.028-3.955.087v-.866h.716c.917 0 1.461-.316 1.461-.922 0-.403-.287-1.181-.4-1.44l-2.093-5.187h-6.678l-1.519 4.553c-.2.576-.488 1.44-.488 2.074 0 .518.287.922 1.175.922h.631v.866a60.912 60.912 0 0 0-3.525-.087c-1.089 0-2.15.028-2.838.087v-.866zM71.574 16.402h-.458c-.746-1.499-2.121-4.323-7.538-4.323-5.819 0-7.681 5.39-7.681 9.626 0 6.86 4.843 9.223 7.823 9.223 4.5 0 6.565-2.565 7.912-4.265h.2v2.19c-1.003.951-3.44 3.284-7.882 3.284-6.507 0-10.92-4.12-10.92-9.913 0-5.563 3.869-11.355 10.661-11.355 2.84 0 5.562.894 6.565 1.21.545.174 1.09.375 1.432.404l-.114 3.92z"/>
        <g transform="translate(73.585 11.079)">
            <mask id="b" fill="#fff">
                <use xlink:href="#a"/>
            </mask>
            <path fill="#00A4E4" d="M.54 19.82h.514c1.318 0 1.892-.49 1.892-2.363V3.393c0-1.874-.574-2.364-1.892-2.364H.54V.165c.918.029 4.184.087 7.052.087 3.38 0 4.728-.058 6.734-.087.057 1.787.115 3.343.258 4.899h-.802c-.286-2.018-.488-3.804-5.56-3.804H5.467v8.156h2.494c3.497 0 3.613-.605 3.67-2.305h.802a62.456 62.456 0 0 0-.058 2.823c0 1.124.03 2.047.058 2.624h-.803c-.143-1.441-.172-2.047-3.41-2.047H5.467v6.917c0 1.729.63 2.162 2.465 2.162h.775c4.814 0 6.076-.922 6.535-4.122h.802c-.2 1.788-.372 3.459-.573 5.217-1.72-.028-4.786-.087-7.881-.087-3.555 0-6.134.059-7.052.087v-.866z" mask="url(#b)"/>
        </g>
        <g transform="translate(0 .265)">
            <mask id="d" fill="#fff">
                <use xlink:href="#c"/>
            </mask>
            <path fill="#00A4E4" d="M1.576 6.195h.194c.455 0 .54-.11.54-.805V.77h-.961C.447.77.337 1.297.286 1.958H0V.415a141.237 141.237 0 0 0 5.361 0v1.542h-.287c-.05-.66-.16-1.186-1.061-1.186H3.05V5.39c0 .695.085.805.54.805h.193v.255c-.32-.009-.682-.027-1.103-.027-.422 0-.784.018-1.105.027v-.255z" mask="url(#d)"/>
        </g>
        <path fill="#00A4E4" d="M6.929 6.46h.152c.387 0 .556-.144.556-.695V1.628c0-.55-.169-.694-.556-.694h-.152V.68c.295.008.7.025 1.079.025.37 0 .725-.017 1.095-.025v.254H8.86c-.337 0-.48.093-.48.898v1.569h3.48V1.832c0-.805-.142-.898-.48-.898h-.244V.68c.371.008.725.025 1.096.025.379 0 .784-.017 1.079-.025v.254h-.152c-.388 0-.556.144-.556.694v4.137c0 .551.168.695.556.695h.152v.254c-.295-.008-.7-.026-1.08-.026-.37 0-.724.018-1.095.026V6.46h.244c.338 0 .48-.093.48-.899V3.757H8.38V5.56c0 .806.143.899.48.899h.244v.254c-.37-.008-.724-.026-1.095-.026-.38 0-.784.018-1.08.026V6.46zM15.063 6.46h.152c.388 0 .556-.144.556-.695V1.628c0-.55-.168-.694-.556-.694h-.152V.68c.27.008 1.23.025 2.074.025.994 0 1.39-.017 1.98-.025.018.525.034.983.076 1.44h-.235c-.085-.593-.144-1.118-1.636-1.118h-.81V3.4h.734c1.029 0 1.062-.178 1.08-.68h.235a18.684 18.684 0 0 0 0 1.603h-.236c-.042-.423-.05-.602-1.003-.602h-.81v2.035c0 .508.186.635.726.635h.227c1.417 0 1.787-.271 1.923-1.212h.235c-.059.526-.11 1.018-.169 1.534-.505-.008-1.407-.026-2.317-.026a72.09 72.09 0 0 0-2.074.026V6.46z"/>
        <g transform="translate(24.906 .265)">
            <mask id="f" fill="#fff">
                <use xlink:href="#e"/>
            </mask>
            <path fill="#00A4E4" d="M5.904 1.931H5.77c-.22-.44-.623-1.27-2.217-1.27-1.711 0-2.259 1.585-2.259 2.83 0 2.017 1.425 2.713 2.302 2.713 1.323 0 1.93-.755 2.326-1.254h.059v.643c-.295.28-1.011.966-2.318.966C1.749 6.56.45 5.347.45 3.644.45 2.008 1.59.304 3.586.304c.834 0 1.635.263 1.93.357.16.05.32.11.422.118L5.904 1.93z" mask="url(#f)"/>
        </g>
        <path fill="#00A4E4" d="M32.673 6.46h.151c.388 0 .556-.144.556-.695V1.628c0-.55-.168-.694-.556-.694h-.151V.68c.294.008.7.025 1.078.025.37 0 .725-.017 1.096-.025v.254h-.244c-.337 0-.481.093-.481.898v1.569h3.481V1.832c0-.805-.143-.898-.48-.898h-.245V.68c.371.008.725.025 1.096.025.38 0 .785-.017 1.079-.025v.254h-.15c-.389 0-.557.144-.557.694v4.137c0 .551.168.695.556.695h.15v.254c-.293-.008-.698-.026-1.078-.026-.371 0-.725.018-1.096.026V6.46h.246c.336 0 .479-.093.479-.899V3.757h-3.481V5.56c0 .806.144.899.481.899h.244v.254c-.37-.008-.725-.026-1.096-.026-.379 0-.784.018-1.078.026V6.46zM40.807 6.46h.15c.389 0 .557-.144.557-.695V1.628c0-.55-.168-.694-.556-.694h-.15V.68c.294.008.698.025 1.078.025.37 0 .725-.017 1.079-.025v.254h-.152c-.388 0-.557.144-.557.694v4.137c0 .551.17.695.557.695h.152v.254c-.354-.008-.709-.026-1.08-.026-.379 0-.783.018-1.078.026V6.46zM44.785 6.46h.152c.387 0 .557-.144.557-.695V1.628c0-.55-.17-.694-.557-.694h-.152V.68c.295.008.7.025 1.08.025.37 0 .724-.017 1.12-.025v.254h-.194c-.387 0-.556.144-.556.694V5.57c0 .636.135.855 1.172.855 1.383 0 1.542-.245 1.694-1.21h.261l-.05 1.5c-.742-.01-1.694-.027-2.437-.027-.986 0-1.795.018-2.09.026V6.46zM52.59 5.621c0 .662.27.771 1.232.771 1.474 0 2.697-.644 2.697-2.534 0-1.237-.767-2.891-2.858-2.891-.354 0-.708.035-1.07.068v4.586zm-1.449.84h.152c.387 0 .556-.145.556-.696V1.628c0-.55-.17-.694-.556-.694h-.152V.679c.295.01.7.026 1.079.026.674 0 1.357-.026 2.032-.026 2.275 0 3.076 1.865 3.076 2.958 0 1.238-.81 3.077-3.389 3.077-.514 0-1.12-.025-1.72-.025-.379 0-.783.016-1.078.025V6.46zM60.725 3.578c.143.05.354.06.573.06.76 0 1.383-.348 1.383-1.23 0-.372-.254-1.406-1.426-1.406-.201 0-.362.017-.53.033v2.543zm-1.45 2.882h.152c.388 0 .555-.144.555-.696V1.628c0-.55-.167-.694-.555-.694h-.152V.679c.296.009.7.026 1.08.026.564 0 .968-.026 1.34-.026 1.49 0 1.76 1.18 1.76 1.57 0 1.108-.774 1.448-1.196 1.583l1.13 1.882c.463.763.598.814 1.28.856v.178c-.16 0-.312.009-.472.009-.741 0-1.087-.094-1.534-.831l-.985-1.62c-.195-.312-.305-.33-.953-.346V5.56c0 .805.143.899.48.899h.245v.254c-.37-.008-.725-.025-1.096-.025-.38 0-.783.017-1.08.025V6.46zM66.161 6.46h.153c.387 0 .555-.144.555-.695V1.628c0-.55-.168-.694-.555-.694h-.153V.68c.27.008 1.231.025 2.074.025.995 0 1.391-.017 1.98-.025.018.525.035.983.077 1.44h-.235c-.086-.593-.144-1.118-1.637-1.118h-.808V3.4h.733c1.03 0 1.061-.178 1.08-.68h.235a18.137 18.137 0 0 0 0 1.603h-.235c-.043-.423-.05-.602-1.005-.602h-.808v2.035c0 .508.185.635.725.635h.226c1.417 0 1.788-.271 1.923-1.212h.236c-.059.526-.11 1.018-.168 1.534-.507-.008-1.409-.026-2.319-.026-1.045 0-1.803.018-2.074.026V6.46zM72.576 6.46h.134c.448 0 .524-.187.55-1.077.033-1.118.05-2.729.05-3.711 0-.612-.185-.738-.607-.738h-.236V.68c.228.008.48.025.741.025.237 0 .456-.017.666-.025l3.97 4.907h.017l-.05-3.476c-.016-.974-.143-1.177-.599-1.177h-.1V.68c.261.008.598.025.908.025.305 0 .607-.017.912-.025v.254h-.135c-.262 0-.505.093-.53.915l-.153 4.942h-.253l-4.18-5.155h-.017c0 1.315.017 2.62.05 3.934.017.695.152.89.548.89h.17v.254c-.28-.008-.617-.026-.929-.026-.32 0-.665.018-.927.026V6.46zM80.82 2.603c.202-.212.489-.525.489-.932a.933.933 0 0 0-.379-.746l.64-.355c.085.135.245.415.245.78 0 .44-.169.796-.784 1.337l-.21-.084zM87.673 2.222h-.286c-.009-.272-.076-1.33-1.35-1.33-.7 0-1.146.448-1.146 1 0 .491.253.84.954 1.16l.774.357c.607.28 1.256.736 1.256 1.584 0 1.06-.691 1.83-2.098 1.83-.136 0-.869-.007-1.509-.211l-.034-1.39h.252c.069.78.717 1.314 1.434 1.314.724 0 1.349-.44 1.349-1.152 0-.747-.583-1.035-1.054-1.264l-.911-.431c-.64-.306-1.087-.764-1.087-1.458 0-.874.741-1.661 1.88-1.661.532 0 1.052.127 1.576.228v1.424z"/>
    </g>
</svg>
