<svg xmlns="http://www.w3.org/2000/svg" width="50" height="50" viewBox="0 0 50 50">
    <path fill="#1DA1F2" fill-rule="evenodd" d="M37.563 20.262c.013.25.013.513.013.776 0 7.962-6.064 17.15-17.151 17.15-3.4 0-6.575-1-9.213-2.726a12.116 12.116 0 0 0 8.925-2.487 6.017 6.017 0 0 1-5.624-4.187c.375.075.75.112 1.137.112.55 0 1.088-.075 1.588-.212a6.033 6.033 0 0 1-4.837-5.913V22.7a5.92 5.92 0 0 0 2.724.75 6.002 6.002 0 0 1-2.688-5.012c0-1.1.3-2.138.813-3.025 2.975 3.65 7.413 6.05 12.425 6.3a5.524 5.524 0 0 1-.163-1.376c0-3.325 2.7-6.024 6.026-6.024 1.737 0 3.3.724 4.4 1.9a12.2 12.2 0 0 0 3.825-1.463 6.023 6.023 0 0 1-2.65 3.337 12.236 12.236 0 0 0 3.462-.95 12.349 12.349 0 0 1-3.013 3.125M25 0C11.193 0 0 11.192 0 25c0 13.807 11.193 25 25 25s25-11.193 25-25C50 11.192 38.807 0 25 0"/>
</svg>
